<?xml version="1.0" standalone="no"?>
<!DOCTYPE svg PUBLIC "-//W3C//DTD SVG 20010904//EN"
 "http://www.w3.org/TR/2001/REC-SVG-20010904/DTD/svg10.dtd">
<svg version="1.0" xmlns="http://www.w3.org/2000/svg"
 width="1000.000000pt" height="1000.000000pt" viewBox="0 0 1000.000000 1000.000000"
 preserveAspectRatio="xMidYMid meet">
<metadata>
Created by potrace 1.11, written by Peter Selinger 2001-2013
</metadata>
<g transform="translate(0.000000,1000.000000) scale(0.100000,-0.100000)"
fill="#000000" stroke="none">
<path d="M750 9991 c-85 -26 -164 -93 -202 -170 l-23 -46 0 -4775 0 -4775 23
-46 c29 -59 84 -114 147 -147 l50 -27 4255 0 4255 0 51 27 c65 34 138 115 158
175 15 42 16 478 16 4793 0 4315 -1 4751 -16 4793 -20 60 -93 141 -158 175
l-51 27 -4240 2 c-2332 1 -4251 -2 -4265 -6z m2912 -1891 c21 -6 51 -22 68
-37 59 -49 64 -70 70 -283 6 -218 10 -233 87 -301 72 -62 8 -59 1113 -59 1105
0 1041 -3 1113 59 77 68 81 83 87 301 6 213 11 234 70 284 67 56 157 54 225
-5 52 -46 57 -77 53 -314 -4 -209 -4 -210 -36 -290 -75 -187 -226 -319 -420
-370 -52 -13 -193 -15 -1092 -15 -899 0 -1040 2 -1092 15 -194 51 -345 183
-420 370 -32 80 -32 81 -36 290 -2 131 0 223 7 245 13 45 57 87 107 105 48 17
50 17 96 5z m0 -5000 c21 -6 51 -22 68 -37 59 -49 64 -70 70 -283 6 -218 10
-233 87 -301 72 -62 8 -59 1113 -59 1105 0 1041 -3 1113 59 77 68 81 83 87
301 6 213 11 234 70 284 79 66 189 50 254 -38 20 -26 21 -41 21 -259 l0 -232
-32 -80 c-76 -187 -227 -319 -421 -370 -52 -13 -193 -15 -1092 -15 -899 0
-1040 2 -1092 15 -194 51 -345 183 -420 370 -32 80 -32 81 -36 290 -2 131 0
223 7 245 13 45 57 87 107 105 48 17 50 17 96 5z"/>
</g>
</svg>
